<!-- icon666.com - MILLIONS vector ICONS FREE --><svg viewBox="0 0 64 64" xmlns="http://www.w3.org/2000/svg"><g id="Fill_Outlines" data-name="Fill Outlines"><g id="Color"><g><g><path d="m22 3a12 12 0 0 0 -12 12v8h4v-8a8 8 0 0 1 16 0v8h4v-8a12 12 0 0 0 -12-12z" fill="#93999a"></path><path d="m22 3a11.924 11.924 0 0 0 -6.327 1.817 11.979 11.979 0 0 1 16.327 11.183v7h2v-8a12 12 0 0 0 -12-12z" fill="#d0d8da"></path><rect fill="#f9e109" height="26" rx="2" width="30" x="7" y="19"></rect><path d="m26 29a4 4 0 1 0 -6 3.445v4.555a2 2 0 0 0 4 0v-4.555a3.982 3.982 0 0 0 2-3.445z" fill="#e59730"></path><path d="m26 40a14 14 0 0 1 -14-14v-7h-3a2 2 0 0 0 -2 2v22a2 2 0 0 0 2 2h26a2 2 0 0 0 2-2v-3z" fill="#fcbc04"></path></g><rect fill="#aae1f9" height="36" rx="5" width="24" x="33" y="25"></rect><path d="m44 25h-6a5 5 0 0 0 -5 5v26a5 5 0 0 0 5 5h14a5 5 0 0 0 5-5v-18z" fill="#57b7eb"></path><path d="m39 37v-12h-1a5 5 0 0 0 -5 5v26a5 5 0 0 0 5 5h14a5 5 0 0 0 5-5v-1a18 18 0 0 1 -18-18z" fill="#4891d3"></path><path d="m46 33a3 3 0 0 0 -3 3v8.555a4 4 0 1 0 4 0v-7.555h2a2 2 0 0 0 2-2v-2z" fill="#d0d8da"></path><path d="m44.178 45.185a4.078 4.078 0 0 1 .822-.63v-8.555a3 3 0 0 1 3-3h-2a3 3 0 0 0 -3 3v8.555a3.988 3.988 0 1 0 5.445 5.445h-2.21a2.847 2.847 0 0 1 -1.963-.786 2.824 2.824 0 0 1 -.094-4.029z" fill="#93999a"></path><path d="m41.5 46.111a3.979 3.979 0 0 0 5.093 5.554 18.058 18.058 0 0 1 -5.093-5.554z" fill="#656b76"></path></g></g><g id="Outline"><g fill="#323232"><path d="m22 40a3 3 0 0 0 3-3v-4.021a5 5 0 1 0 -6 0v4.021a3 3 0 0 0 3 3zm0-14a3 3 0 0 1 3 3 2.968 2.968 0 0 1 -1.5 2.581 1 1 0 0 0 -.5.864v4.555a1 1 0 0 1 -2 0v-4.555a1 1 0 0 0 -.5-.864 2.968 2.968 0 0 1 -1.5-2.581 3 3 0 0 1 3-3z" fill="#323232" style="fill: rgb(0, 0, 0);"></path><circle cx="12" cy="24" r="1" fill="#323232" style="fill: rgb(0, 0, 0);"></circle><circle cx="12" cy="40" r="1" fill="#323232" style="fill: rgb(0, 0, 0);"></circle><circle cx="32" cy="24" r="1" fill="#323232" style="fill: rgb(0, 0, 0);"></circle><path d="m35 20a1 1 0 0 1 1 1 1 1 0 0 0 2 0 3 3 0 0 0 -3-3v-3a13 13 0 0 0 -26 0v3a3 3 0 0 0 -3 3v22a3 3 0 0 0 3 3h20a1 1 0 0 0 0-2h-20a1 1 0 0 1 -1-1v-22a1 1 0 0 1 1-1zm-24-5a11 11 0 0 1 22 0v3h-2v-3a9 9 0 0 0 -18 0 1 1 0 0 0 2 0 7 7 0 0 1 14 0v3h-18z" fill="#323232" style="fill: rgb(0, 0, 0);"></path><path d="m57 50a1 1 0 0 0 -1 1v5a4 4 0 0 1 -4 4h-14a4 4 0 0 1 -4-4v-18a1 1 0 0 0 -2 0v18a6.006 6.006 0 0 0 6 6h14a6.006 6.006 0 0 0 6-6v-5a1 1 0 0 0 -1-1z" fill="#323232" style="fill: rgb(0, 0, 0);"></path><path d="m52 24h-14a6.006 6.006 0 0 0 -6 6v4a1 1 0 0 0 2 0v-4a4 4 0 0 1 4-4h14a4 4 0 0 1 4 4v17a1 1 0 0 0 2 0v-17a6.006 6.006 0 0 0 -6-6z" fill="#323232" style="fill: rgb(0, 0, 0);"></path><path d="m45 53a4.986 4.986 0 0 0 3-8.979v-2.021h2a1 1 0 0 0 0-2h-2v-2h1a3 3 0 0 0 3-3v-2a1 1 0 0 0 -1-1h-5a4 4 0 0 0 -4 4v5a1 1 0 0 0 2 0v-5a2 2 0 0 1 2-2h4v1a1 1 0 0 1 -1 1h-2a1 1 0 0 0 -1 1v7.555a1 1 0 0 0 .5.864 2.968 2.968 0 0 1 1.5 2.581 3 3 0 0 1 -6 0 2.968 2.968 0 0 1 1.5-2.581 1 1 0 0 0 -1-1.729 4.988 4.988 0 0 0 2.5 9.31z" fill="#323232" style="fill: rgb(0, 0, 0);"></path><circle cx="45" cy="48" r="1" fill="#323232" style="fill: rgb(0, 0, 0);"></circle><circle cx="38" cy="29" r="1" fill="#323232" style="fill: rgb(0, 0, 0);"></circle><circle cx="42" cy="29" r="1" fill="#323232" style="fill: rgb(0, 0, 0);"></circle><path d="m42 55a1 1 0 0 0 0 2h6a1 1 0 0 0 0-2z" fill="#323232" style="fill: rgb(0, 0, 0);"></path><path d="m40.757 15.757a6.008 6.008 0 0 1 8.486 0 1 1 0 1 0 1.414-1.414 8.01 8.01 0 0 0 -11.314 0 1 1 0 1 0 1.414 1.414z" fill="#323232" style="fill: rgb(0, 0, 0);"></path><path d="m47.121 18.879a1 1 0 0 0 .707-1.707 4.093 4.093 0 0 0 -5.656 0 1 1 0 0 0 1.414 1.414 2.047 2.047 0 0 1 2.828 0 1 1 0 0 0 .707.293z" fill="#323232" style="fill: rgb(0, 0, 0);"></path><circle cx="45" cy="21" r="1" fill="#323232" style="fill: rgb(0, 0, 0);"></circle><path d="m29 53h-6v-4a1 1 0 0 0 -2 0v5a1 1 0 0 0 1 1h7a1 1 0 0 0 0-2z" fill="#323232" style="fill: rgb(0, 0, 0);"></path></g></g></g></svg>